<svg width="24" height="24" viewBox="0 0 24 24" fill="none" xmlns="http://www.w3.org/2000/svg">
<path d="M12.006 4.29505C9.336 4.29505 6.668 5.07905 4.361 6.64805H0L1.963 8.78305C1.06861 9.59792 0.441617 10.6643 0.1644 11.842C-0.112816 13.0198 -0.0272945 14.2539 0.409731 15.3821C0.846756 16.5104 1.61484 17.4801 2.61309 18.1638C3.61134 18.8475 4.79306 19.2133 6.003 19.213C7.51482 19.2144 8.97095 18.6426 10.078 17.613L12 19.705L13.922 17.615C15.0284 18.6435 16.4834 19.2145 17.994 19.213C19.585 19.213 21.1108 18.5812 22.2359 17.4564C23.3611 16.3316 23.9935 14.806 23.994 13.215C23.9949 12.3807 23.8213 11.5553 23.4843 10.7921C23.1472 10.0288 22.6543 9.34445 22.037 8.78305L24 6.64805H19.65C17.3962 5.11376 14.7325 4.29383 12.006 4.29505ZM12 6.25505C13.531 6.25505 15.063 6.55805 16.504 7.15805C13.943 8.13805 12 10.43 12 13.1C12 10.429 10.058 8.13805 7.496 7.15805C8.92314 6.56323 10.4539 6.25568 12 6.25505ZM6.002 9.15704C6.53504 9.15704 7.06285 9.26203 7.55531 9.46602C8.04777 9.67 8.49523 9.96899 8.87215 10.3459C9.24906 10.7228 9.54804 11.1703 9.75203 11.6627C9.95601 12.1552 10.061 12.683 10.061 13.216C10.061 13.7491 9.95601 14.2769 9.75203 14.7694C9.54804 15.2618 9.24906 15.7093 8.87215 16.0862C8.49523 16.4631 8.04777 16.7621 7.55531 16.9661C7.06285 17.1701 6.53504 17.275 6.002 17.275C4.92549 17.275 3.89306 16.8474 3.13185 16.0862C2.37064 15.325 1.943 14.2926 1.943 13.216C1.943 12.1395 2.37064 11.1071 3.13185 10.3459C3.89306 9.58469 4.92549 9.15704 6.002 9.15704ZM17.994 9.15905C18.5268 9.15885 19.0545 9.2636 19.5469 9.46733C20.0392 9.67106 20.4866 9.96976 20.8635 10.3464C21.2404 10.723 21.5395 11.1702 21.7436 11.6624C21.9477 12.1546 22.0528 12.6822 22.053 13.215C22.0532 13.7479 21.9484 14.2755 21.7447 14.7679C21.541 15.2603 21.2423 15.7077 20.8656 16.0846C20.489 16.4615 20.0418 16.7605 19.5496 16.9646C19.0574 17.1687 18.5298 17.2738 17.997 17.274C16.9209 17.2744 15.8887 16.8473 15.1275 16.0867C14.3663 15.326 13.9384 14.2942 13.938 13.218C13.9376 12.1419 14.3647 11.1097 15.1254 10.3485C15.886 9.58731 16.9179 9.15944 17.994 9.15905ZM6.002 11.089C5.43762 11.089 4.89635 11.3132 4.49728 11.7123C4.0982 12.1114 3.874 12.6527 3.874 13.217C3.874 13.7814 4.0982 14.3227 4.49728 14.7218C4.89635 15.1208 5.43762 15.345 6.002 15.345C6.56638 15.345 7.10765 15.1208 7.50672 14.7218C7.9058 14.3227 8.13 13.7814 8.13 13.217C8.13 12.6527 7.9058 12.1114 7.50672 11.7123C7.10765 11.3132 6.56638 11.089 6.002 11.089ZM17.994 11.089C17.4296 11.089 16.8884 11.3132 16.4893 11.7123C16.0902 12.1114 15.866 12.6527 15.866 13.217C15.866 13.7814 16.0902 14.3227 16.4893 14.7218C16.8884 15.1208 17.4296 15.345 17.994 15.345C18.5584 15.345 19.0996 15.1208 19.4987 14.7218C19.8978 14.3227 20.122 13.7814 20.122 13.217C20.122 12.6527 19.8978 12.1114 19.4987 11.7123C19.0996 11.3132 18.5584 11.089 17.994 11.089Z" fill="white"/>
</svg>
